<?xml version="1.0" encoding="UTF-8"?>
<!-- Generator: Adobe Illustrator 22.1.0, SVG Export Plug-In . SVG Version: 6.00 Build 0)  -->
<svg version="1.1" width="127px" height="49px" id="Capa_1" xmlns="http://www.w3.org/2000/svg" xmlns:xlink="http://www.w3.org/1999/xlink" x="0px" y="0px" viewBox="0 0 127 36" enable-background="new 0 0 127 36" xml:space="preserve">
<rect fill="#FFFFFF" width="127" height="36"/>
<g>
	<g>
		<defs>
			<rect id="SVGID_1_" x="3.7" y="3.2" width="120" height="29.5"/>
		</defs>
		<clipPath id="SVGID_2_">
			<use xlink:href="#SVGID_1_" overflow="visible"/>
		</clipPath>
		<rect x="36.7" y="3.2" clip-path="url(#SVGID_2_)" fill="#92999F" width="87" height="29.5"/>
		<g clip-path="url(#SVGID_2_)">
			<defs>
				<rect id="SVGID_3_" x="3.7" y="3.2" width="120" height="29.5"/>
			</defs>
			<clipPath id="SVGID_4_">
				<use xlink:href="#SVGID_3_" overflow="visible"/>
			</clipPath>
			<path clip-path="url(#SVGID_4_)" fill="#FFFFFF" d="M108.5,17.8v-4.4h2.1c1.6,0,2.4,0.8,2.4,2.2c0,1.4-0.8,2.2-2.4,2.2H108.5z      M108.5,21.6h2.3c4.3,0,6.7-2.5,6.7-5.9c0-3.4-2.4-6-6.7-6h-6.9v16.7h4.6V21.6z M89.3,26.4h12.3v-3.8h-7.7v-2.9h6.2v-3.6h-6.2     v-2.8h7.4V9.6H89.3V26.4z M79.4,17.6l1.6,3.5h-3.1L79.4,17.6z M83.3,26.4H88l-8.3-17c-0.1-0.2-0.2-0.2-0.3,0l-8.3,17h4.5l0.9-2     h5.9L83.3,26.4z M64.6,17.8v-4.4h2.1c1.5,0,2.4,0.8,2.4,2.2c0,1.4-0.8,2.2-2.4,2.2H64.6z M64.6,21.6h2.3c4.3,0,6.7-2.5,6.7-5.9     c0-3.4-2.4-6-6.7-6H60v16.7h4.6V21.6z M50.3,26.6c4.3,0,7.4-2.2,7.4-6.7V9.6h-4.6v10.2c0,1.9-0.9,3-2.8,3c-1.9,0-2.8-1.1-2.8-3     V9.6h-4.6v10.3C42.9,24.4,46,26.6,50.3,26.6"/>
			<rect x="3.7" y="3.2" clip-path="url(#SVGID_4_)" fill="#FF0000" width="30" height="29.5"/>
			<path clip-path="url(#SVGID_4_)" fill="#FFFFFF" d="M22.2,20.3c0,2.2-1.1,3.5-3.5,3.5c-2.4,0-3.5-1.3-3.5-3.5V7.8h-2.5v12.5     c0,3.7,2.4,5.6,6,5.6c3.6,0,6-1.9,6-5.6V7.8l-2.5,2.5V20.3z M27.7,20.4V7.8h-2.5v12.5c0,4.1-2.6,6.1-6.5,6.1     c-3.9,0-6.5-2-6.5-6.1V7.8h0l-2.5,2.5v10.1c0,5.5,3.8,8.2,9,8.2C23.9,28.6,27.7,25.9,27.7,20.4"/>
		</g>
	</g>
</g>
</svg>